<svg width="current" height="current" viewBox="0 0 32 32" fill="none" xmlns="http://www.w3.org/2000/svg">
    <path fill-rule="evenodd" clip-rule="evenodd"
          d="M0 16C0 21.4994 2.77441 26.3506 7 29.2306V24.5385C7 20.9292 9.88 18 13.4286 18H18.5714C22.12 18 25 20.9292 25 24.5385V29.2306C29.2256 26.3506 32 21.4994 32 16C32 7.16345 24.8365 0 16 0C7.16345 0 0 7.16345 0 16ZM16 32C18.2866 32 20.4612 31.5204 22.4286 30.6561V24.5385C22.4286 22.3807 20.6929 20.6154 18.5714 20.6154H13.4286C11.3071 20.6154 9.57141 22.3807 9.57141 24.5385V30.6561C11.5388 31.5204 13.7134 32 16 32ZM18.5 11C18.5 9.625 17.375 8.5 16 8.5C14.625 8.5 13.5 9.625 13.5 11C13.5 12.375 14.625 13.5 16 13.5C17.375 13.5 18.5 12.375 18.5 11ZM11 11C11 8.23755 13.2375 6 16 6C18.7625 6 21 8.23755 21 11C21 13.7625 18.7625 16 16 16C13.2375 16 11 13.7625 11 11Z"
          fill="#C5CAD0"/>
</svg>
