<svg width="168" height="50" viewBox="0 0 168 50" fill="none" xmlns="http://www.w3.org/2000/svg">
<circle cx="20.8261" cy="32.2338" r="7.54941" transform="rotate(22.199 20.8261 32.2338)" fill="#6CD6BA"/>
<circle cx="19.409" cy="20.0072" r="7.54941" transform="rotate(22.199 19.409 20.0072)" fill="#B7DDD3"/>
<circle cx="9.84219" cy="27.7514" r="7.54941" transform="rotate(22.199 9.84219 27.7514)" fill="#265257"/>
<path d="M48.0631 21.288C47.6791 20.584 47.1511 20.048 46.4791 19.68C45.8071 19.312 45.0231 19.128 44.1271 19.128C43.1351 19.128 42.2551 19.352 41.4871 19.8C40.7191 20.248 40.1191 20.888 39.6871 21.72C39.2551 22.552 39.0391 23.512 39.0391 24.6C39.0391 25.72 39.2551 26.696 39.6871 27.528C40.1351 28.36 40.7511 29 41.5351 29.448C42.3191 29.896 43.2311 30.12 44.2711 30.12C45.5511 30.12 46.5991 29.784 47.4151 29.112C48.2311 28.424 48.7671 27.472 49.0231 26.256H43.2631V23.688H52.3351V26.616C52.1111 27.784 51.6311 28.864 50.8951 29.856C50.1591 30.848 49.2071 31.648 48.0391 32.256C46.8871 32.848 45.5911 33.144 44.1511 33.144C42.5351 33.144 41.0711 32.784 39.7591 32.064C38.4631 31.328 37.4391 30.312 36.6871 29.016C35.9511 27.72 35.5831 26.248 35.5831 24.6C35.5831 22.952 35.9511 21.48 36.6871 20.184C37.4391 18.872 38.4631 17.856 39.7591 17.136C41.0711 16.4 42.5271 16.032 44.1271 16.032C46.0151 16.032 47.6551 16.496 49.0471 17.424C50.4391 18.336 51.3991 19.624 51.9271 21.288H48.0631ZM56.981 21.768C57.413 21.064 57.973 20.512 58.661 20.112C59.365 19.712 60.165 19.512 61.061 19.512V23.04H60.173C59.117 23.04 58.317 23.288 57.773 23.784C57.245 24.28 56.981 25.144 56.981 26.376V33H53.621V19.704H56.981V21.768ZM68.0281 33.216C66.7481 33.216 65.5961 32.936 64.5721 32.376C63.5481 31.8 62.7401 30.992 62.1481 29.952C61.5721 28.912 61.2841 27.712 61.2841 26.352C61.2841 24.992 61.5801 23.792 62.1721 22.752C62.7801 21.712 63.6041 20.912 64.6441 20.352C65.6841 19.776 66.8441 19.488 68.1241 19.488C69.4041 19.488 70.5641 19.776 71.6041 20.352C72.6442 20.912 73.4602 21.712 74.0522 22.752C74.6602 23.792 74.9641 24.992 74.9641 26.352C74.9641 27.712 74.6521 28.912 74.0281 29.952C73.4201 30.992 72.5881 31.8 71.5321 32.376C70.4921 32.936 69.3241 33.216 68.0281 33.216ZM68.0281 30.288C68.6361 30.288 69.2041 30.144 69.7321 29.856C70.2761 29.552 70.7081 29.104 71.0281 28.512C71.3481 27.92 71.5081 27.2 71.5081 26.352C71.5081 25.088 71.1721 24.12 70.5001 23.448C69.8441 22.76 69.0361 22.416 68.0761 22.416C67.1161 22.416 66.3081 22.76 65.6521 23.448C65.0121 24.12 64.6921 25.088 64.6921 26.352C64.6921 27.616 65.0041 28.592 65.6281 29.28C66.2681 29.952 67.0681 30.288 68.0281 30.288ZM94.6608 19.704L90.7728 33H87.1488L84.7248 23.712L82.3008 33H78.6528L74.7408 19.704H78.1488L80.5008 29.832L83.0448 19.704H86.5968L89.0928 29.808L91.4448 19.704H94.6608ZM111.462 21.288C111.078 20.584 110.55 20.048 109.878 19.68C109.206 19.312 108.422 19.128 107.526 19.128C106.534 19.128 105.654 19.352 104.886 19.8C104.118 20.248 103.518 20.888 103.086 21.72C102.654 22.552 102.438 23.512 102.438 24.6C102.438 25.72 102.654 26.696 103.086 27.528C103.534 28.36 104.15 29 104.934 29.448C105.718 29.896 106.63 30.12 107.67 30.12C108.95 30.12 109.998 29.784 110.814 29.112C111.63 28.424 112.166 27.472 112.422 26.256H106.662V23.688H115.734V26.616C115.51 27.784 115.03 28.864 114.294 29.856C113.558 30.848 112.606 31.648 111.438 32.256C110.286 32.848 108.99 33.144 107.55 33.144C105.934 33.144 104.47 32.784 103.158 32.064C101.862 31.328 100.838 30.312 100.086 29.016C99.3496 27.72 98.9816 26.248 98.9816 24.6C98.9816 22.952 99.3496 21.48 100.086 20.184C100.838 18.872 101.862 17.856 103.158 17.136C104.47 16.4 105.926 16.032 107.526 16.032C109.414 16.032 111.054 16.496 112.446 17.424C113.838 18.336 114.798 19.624 115.326 21.288H111.462ZM120.379 21.768C120.811 21.064 121.371 20.512 122.059 20.112C122.763 19.712 123.563 19.512 124.459 19.512V23.04H123.571C122.515 23.04 121.715 23.288 121.171 23.784C120.643 24.28 120.379 25.144 120.379 26.376V33H117.019V19.704H120.379V21.768ZM137.883 26.064C137.883 26.544 137.851 26.976 137.787 27.36H128.067C128.147 28.32 128.483 29.072 129.075 29.616C129.667 30.16 130.395 30.432 131.259 30.432C132.507 30.432 133.395 29.896 133.923 28.824H137.547C137.163 30.104 136.427 31.16 135.339 31.992C134.251 32.808 132.915 33.216 131.331 33.216C130.051 33.216 128.899 32.936 127.875 32.376C126.867 31.8 126.075 30.992 125.499 29.952C124.939 28.912 124.659 27.712 124.659 26.352C124.659 24.976 124.939 23.768 125.499 22.728C126.059 21.688 126.843 20.888 127.851 20.328C128.859 19.768 130.019 19.488 131.331 19.488C132.595 19.488 133.723 19.76 134.715 20.304C135.723 20.848 136.499 21.624 137.043 22.632C137.603 23.624 137.883 24.768 137.883 26.064ZM134.403 25.104C134.387 24.24 134.075 23.552 133.467 23.04C132.859 22.512 132.115 22.248 131.235 22.248C130.403 22.248 129.699 22.504 129.123 23.016C128.563 23.512 128.219 24.208 128.091 25.104H134.403ZM151.495 26.064C151.495 26.544 151.463 26.976 151.399 27.36H141.679C141.759 28.32 142.095 29.072 142.687 29.616C143.279 30.16 144.007 30.432 144.871 30.432C146.119 30.432 147.007 29.896 147.535 28.824H151.159C150.775 30.104 150.039 31.16 148.951 31.992C147.863 32.808 146.527 33.216 144.943 33.216C143.663 33.216 142.511 32.936 141.487 32.376C140.479 31.8 139.687 30.992 139.111 29.952C138.551 28.912 138.271 27.712 138.271 26.352C138.271 24.976 138.551 23.768 139.111 22.728C139.671 21.688 140.455 20.888 141.463 20.328C142.471 19.768 143.631 19.488 144.943 19.488C146.207 19.488 147.335 19.76 148.327 20.304C149.335 20.848 150.111 21.624 150.655 22.632C151.215 23.624 151.495 24.768 151.495 26.064ZM148.015 25.104C147.999 24.24 147.687 23.552 147.079 23.04C146.471 22.512 145.727 22.248 144.847 22.248C144.015 22.248 143.311 22.504 142.735 23.016C142.175 23.512 141.831 24.208 141.703 25.104H148.015ZM160.116 19.512C161.7 19.512 162.98 20.016 163.956 21.024C164.932 22.016 165.42 23.408 165.42 25.2V33H162.06V25.656C162.06 24.6 161.796 23.792 161.268 23.232C160.74 22.656 160.02 22.368 159.108 22.368C158.18 22.368 157.444 22.656 156.9 23.232C156.372 23.792 156.108 24.6 156.108 25.656V33H152.748V19.704H156.108V21.36C156.556 20.784 157.124 20.336 157.812 20.016C158.516 19.68 159.284 19.512 160.116 19.512Z" fill="#041517"/>
</svg>
